<svg width="1422" height="1422" viewBox="0 0 1422 1422" fill="none" xmlns="http://www.w3.org/2000/svg">
<g clip-path="url(#clip0_1_12)">
<path d="M590.069 866.556H533.222C495.987 866.556 461.764 853.389 434.958 831.487C417.423 817.17 403.203 799.221 393.278 778.876C382.98 757.732 377.641 734.518 377.667 711C377.667 625.222 447.444 555.444 533.222 555.444H711V488.778H533.222C460.513 488.778 395.973 523.693 355.431 577.667C327.542 614.807 311 660.973 311 711C311 761.027 327.542 807.196 355.431 844.333C395.971 898.304 460.513 933.222 533.222 933.222H622.111L711 822.111V715.389L590.069 866.556Z" fill="#6B8E23"/>
<path d="M1066.57 577.667C1026.03 523.693 961.484 488.778 888.778 488.778H711V555.444H888.778C912.296 555.418 935.51 560.757 956.653 571.056C976.998 580.981 994.948 595.201 1009.26 612.736C1031.17 639.542 1044.33 673.764 1044.33 711C1044.33 796.778 974.556 866.556 888.778 866.556H831.931L797.931 824.056L756.029 771.68L711 715.389V822.111L799.889 933.222H888.778C961.487 933.222 1026.03 898.307 1066.57 844.333C1094.46 807.196 1111 761.027 1111 711C1111 660.973 1094.46 614.804 1066.57 577.667Z" fill="#556B2F"/>
<path d="M533.222 555.444C447.444 555.444 377.667 625.222 377.667 711C377.641 734.518 382.98 757.732 393.278 778.876L616.722 555.444H533.222ZM533.222 866.556H590.069L711 715.389V555.444L434.958 831.487C461.764 853.389 495.987 866.556 533.222 866.556Z" fill="#FFDA44"/>
<path d="M393.278 778.876C403.203 799.22 417.424 817.17 434.958 831.487L711 555.444H616.722L393.278 778.876Z" fill="white"/>
<path d="M756.042 771.68L956.667 571.056C935.52 560.754 912.3 555.415 888.778 555.444H711V715.389L756.042 771.68ZM831.931 866.556H888.778C974.556 866.556 1044.33 796.778 1044.33 711C1044.33 673.764 1031.17 639.542 1009.26 612.736L797.944 824.069L831.931 866.556Z" fill="#FF9811"/>
<path d="M797.931 824.056L1009.25 612.722C994.935 595.187 976.985 580.967 956.64 571.042L756.016 771.667L797.918 824.042L797.931 824.056Z" fill="#FFDA44"/>
</g>
<defs>
<clipPath id="clip0_1_12">
<rect width="800" height="800" fill="white" transform="translate(311 311)"/>
</clipPath>
</defs>
</svg>
