<svg height="800" width="800" xmlns="http://www.w3.org/2000/svg" viewBox="20 100 360 200" xml:space="preserve" version="1.1" xmlns:xlink="http://www.w3.org/1999/xlink">
  <path style="fill:#6b8e23" d="M145.581 270H120c-16.756 0 -32.156 -5.925 -44.219 -15.781a70.425 70.425 0 0 1 -18.756 -23.675A69.581 69.581 0 0 1 50 200c0 -38.6 31.4 -70 70 -70h80v-30h-80c-32.719 0 -61.762 15.712 -80.006 40C27.444 156.713 20 177.488 20 200s7.444 43.288 19.994 60C58.237 284.287 87.281 300 120 300h40l40 -50v-48.025L145.581 270z"/>
  <path style="fill:#556b2f" d="M360.006 140c-18.244 -24.288 -47.288 -40 -80.006 -40h-80v30h80a69.575 69.575 0 0 1 30.544 7.025 70.438 70.438 0 0 1 23.675 18.756C344.075 167.844 350 183.244 350 200c0 38.6 -31.4 70 -70 70h-25.581l-15.3 -19.125 -18.856 -23.569L200 201.975V250l40 50h40c32.719 0 61.762 -15.712 80.006 -40C372.556 243.288 380 222.512 380 200s-7.444 -43.288 -19.994 -60z"/>
  <path style="fill:#ffda44" d="M120 130c-38.6 0 -70 31.4 -70 70a69.581 69.581 0 0 0 7.025 30.544L157.575 130H120zm0 140h25.581L200 201.975V130L75.781 254.219C87.844 264.075 103.244 270 120 270z"/>
  <path style="fill:#fff" d="M57.025 230.544a70.438 70.438 0 0 0 18.756 23.675L200 130h-42.425L57.025 230.544z"/>
  <path style="fill:#ff9811" d="m220.269 227.306 90.281 -90.281A69.563 69.563 0 0 0 280 130h-80v71.975l20.269 25.331zM254.419 270H280c38.6 0 70 -31.4 70 -70 0 -16.756 -5.925 -32.156 -15.781 -44.219l-95.094 95.1L254.419 270z"/>
  <path style="fill:#ffda44" d="m239.119 250.875 95.094 -95.1a70.425 70.425 0 0 0 -23.675 -18.756l-90.281 90.281 18.856 23.569z"/>
</svg>
