<svg height="30px" width="30px" version="1.1" id="Layer_1" xmlns="http://www.w3.org/2000/svg" xmlns:xlink="http://www.w3.org/1999/xlink" viewBox="0 0 19.2 19.2" xml:space="preserve">
  <g>
    <path style="fill:#FFFFFF;" d="M5.154 12.111c0.619 0 1.123 0.504 1.123 1.123c0 0.619 -0.504 1.123 -1.123 1.123c-0.619 0 -1.123 -0.504 -1.123 -1.123C4.032 12.615 4.536 12.111 5.154 12.111z"/>
    <path style="fill:#FFFFFF;" d="M14.046 12.111c0.619 0 1.123 0.504 1.123 1.123c0 0.619 -0.504 1.123 -1.123 1.123c-0.619 0 -1.123 -0.504 -1.123 -1.123C12.922 12.615 13.425 12.111 14.046 12.111z"/>
    <path style="fill:#FFFFFF;" d="M7.813 4.434v3.114H1.989l2.454 -2.609c0.231 -0.246 0.834 -0.507 1.173 -0.507H7.813z"/>
  </g>
  <path style="fill:#C5E2E2;" d="M12.588 4.839l1.26 2.709H7.813V4.434h4.136C12.15 4.434 12.503 4.657 12.588 4.839z"/>
  <path style="fill:#ED6951;" d="M17.142 8.775c0 -0.194 0.032 -0.38 0.09 -0.553c0 0 -1.432 -0.479 -1.432 -0.479c-0.32 -0.106 -0.699 -0.444 -0.843 -0.748l-1.26 -2.677c-0.286 -0.609 -1.074 -1.109 -1.748 -1.109H5.617c-0.673 0 -1.603 0.402 -2.066 0.892l-2.826 3.002c-0.231 0.246 -0.42 0.722 -0.42 1.059v3.846c0 0.673 0.552 1.225 1.225 1.225h0.865c0 -1.522 1.234 -2.757 2.757 -2.757s2.757 1.234 2.757 2.757h3.377c0 -1.522 1.234 -2.757 2.757 -2.757s2.757 1.234 2.757 2.757c0 0 0.436 0 1.023 0s1.068 -0.552 1.068 -1.225v-1.482C17.925 10.527 17.142 9.742 17.142 8.775zM1.989 7.55l2.454 -2.609c0.231 -0.246 0.834 -0.507 1.173 -0.507h6.332c0.201 0 0.553 0.223 0.639 0.405l1.26 2.709H1.989z"/>
  <g>
    <path style="fill:#AECE71;" d="M5.154 10.476c1.522 0 2.757 1.234 2.757 2.757s-1.234 2.757 -2.757 2.757s-2.757 -1.234 -2.757 -2.757S3.631 10.476 5.154 10.476zM6.277 13.233c0 -0.619 -0.504 -1.123 -1.123 -1.123c-0.619 0 -1.123 0.504 -1.123 1.123c0 0.619 0.504 1.123 1.123 1.123C5.775 14.357 6.277 13.852 6.277 13.233z"/>
    <path style="fill:#AECE71;" d="M14.046 10.476c1.522 0 2.757 1.234 2.757 2.757s-1.234 2.757 -2.757 2.757s-2.757 -1.234 -2.757 -2.757S12.522 10.476 14.046 10.476zM15.168 13.233c0 -0.619 -0.504 -1.123 -1.123 -1.123c-0.619 0 -1.123 0.504 -1.123 1.123c0 0.619 0.504 1.123 1.123 1.123C14.664 14.357 15.168 13.852 15.168 13.233z"/>
  </g>
  <path style="fill:#EEC278;" d="M17.232 8.22c0.915 0.304 1.662 1.343 1.662 2.305c-0.968 0 -1.752 -0.784 -1.752 -1.752C17.142 8.582 17.174 8.396 17.232 8.22z"/>
  <g>
    <path style="fill:#700019;" d="M5.154 14.664c0.789 0 1.429 -0.642 1.429 -1.429c0 -0.789 -0.642 -1.429 -1.429 -1.429s-1.429 0.642 -1.429 1.429C3.724 14.022 4.367 14.664 5.154 14.664zM5.154 12.417c0.45 0 0.818 0.366 0.818 0.818s-0.366 0.818 -0.818 0.818s-0.818 -0.366 -0.818 -0.818S4.704 12.417 5.154 12.417z"/>
    <path style="fill:#700019;" d="M14.046 11.803c-0.789 0 -1.429 0.642 -1.429 1.429c0 0.789 0.642 1.429 1.429 1.429c0.789 0 1.429 -0.642 1.429 -1.429C15.476 12.446 14.833 11.803 14.046 11.803zM14.046 14.051c-0.45 0 -0.818 -0.366 -0.818 -0.818s0.366 -0.818 0.818 -0.818s0.818 0.366 0.818 0.818S14.496 14.051 14.046 14.051z"/>
    <path style="fill:#700019;" d="M5.617 4.74h0.972c0.17 0 0.306 -0.138 0.306 -0.306c0 -0.17 -0.138 -0.306 -0.306 -0.306h-0.972c-0.426 0 -1.104 0.294 -1.397 0.603l-2.454 2.609c-0.084 0.088 -0.106 0.219 -0.058 0.332c0.048 0.112 0.159 0.184 0.282 0.184h11.857c0.105 0 0.203 -0.054 0.258 -0.141c0.057 -0.088 0.063 -0.2 0.019 -0.294l-1.26 -2.71c-0.135 -0.288 -0.597 -0.582 -0.915 -0.582H7.813c-0.17 0 -0.306 0.138 -0.306 0.306l0 2.808H2.699l1.968 -2.091C4.84 4.966 5.364 4.74 5.617 4.74zM8.121 4.74h3.828c0.09 0.005 0.321 0.15 0.361 0.228l1.057 2.274h-5.247L8.121 4.74z"/>
    <path style="fill:#700019;" d="M19.2 10.527c0 -1.087 -0.84 -2.253 -1.872 -2.597c0 0 -1.432 -0.477 -1.432 -0.477c-0.24 -0.08 -0.555 -0.36 -0.661 -0.588l-1.26 -2.677c-0.339 -0.72 -1.228 -1.284 -2.025 -1.284H5.617c-0.762 0 -1.767 0.435 -2.289 0.989l-2.826 3.002C0.22 7.192 0 7.75 0 8.162v3.846c0 0.844 0.687 1.531 1.531 1.531h0.575c0.154 1.546 1.462 2.757 3.048 2.757s2.895 -1.212 3.048 -2.757h1.86c0.17 0 0.306 -0.138 0.306 -0.306c0 -0.17 -0.138 -0.306 -0.306 -0.306h-1.86c-0.154 -1.546 -1.462 -2.757 -3.048 -2.757s-2.895 1.212 -3.048 2.757H1.531c-0.507 0 -0.919 -0.413 -0.919 -0.919V8.162c0 -0.257 0.161 -0.661 0.336 -0.849l2.826 -3.002c0.407 -0.432 1.249 -0.796 1.842 -0.796h6.332c0.559 0 1.233 0.427 1.47 0.933l1.26 2.677c0.18 0.384 0.621 0.774 1.023 0.909l1.164 0.389c-0.021 0.115 -0.03 0.234 -0.03 0.352c0 1.03 0.762 1.887 1.752 2.035v1.197c0 0.507 -0.342 0.919 -0.76 0.919h-0.732c-0.154 -1.546 -1.462 -2.757 -3.048 -2.757c-1.689 0 -3.063 1.374 -3.063 3.063s1.374 3.063 3.063 3.063c1.585 0 2.895 -1.212 3.048 -2.757h0.732c0.758 0 1.374 -0.687 1.374 -1.531L19.2 10.527L19.2 10.527zM5.154 10.782c1.352 0 2.451 1.099 2.451 2.451s-1.099 2.451 -2.451 2.451s-2.451 -1.099 -2.451 -2.451S3.804 10.782 5.154 10.782zM14.046 15.684c-1.352 0 -2.451 -1.099 -2.451 -2.451s1.099 -2.451 2.451 -2.451s2.451 1.099 2.451 2.451S15.396 15.684 14.046 15.684zM17.448 8.775c0 -0.039 0.002 -0.08 0.005 -0.118c0.537 0.312 0.972 0.913 1.098 1.522C17.919 10.024 17.448 9.453 17.448 8.775z"/>
  </g>
</svg>
